<?xml version="1.0" encoding="iso-8859-1" standalone="no"?> 
<?xml-stylesheet href="firstExample.css" type="text/css"?> 
<svg xmlns="http://www.w3.org/2000/svg" xmlns:xlink="http://www.w3.org/1999/xlink" width="209.5567pt" height="177.83452pt" viewBox="86.46854 11792.72491 209.5567 177.83452 "> 
<g transform="translate(0, 11970.55943 ) scale(1,-1) translate(0,-11792.72491 )"> 

<g>
 <g stroke="rgb(0.0%,0.0%,0.0%)">
 <g fill="rgb(0.0%,0.0%,0.0%)">
 <g stroke-width="0.4pt">
 <g>
 <g>
 <g>
 <clipPath id="pgfcp11"> <path d=" M  86.66853 11650.7117 L  281.67273 11650.7117 L  281.67273 12097.13809 L  86.66853 12097.13809  "/>
</clipPath>
 <g clip-path="url(#pgfcp11)">
 <g>
 <g stroke-width="0.4pt">
 <g stroke="rgb(75.0%,75.0%,75.0%)">
 <g fill="rgb(75.0%,75.0%,75.0%)">
 <path d=" M  104.0039 11792.92491 L  104.0039 11954.92488 M  156.00586 11792.92491 L  156.00586 11954.92488 M  208.00781 11792.92491 L  208.00781 11954.92488  " style="fill:none"/>
 </g>
 </g>
 </g>
 </g>
 </g>
 </g>
 <g>
 <clipPath id="pgfcp12"> <path d=" M  -55.611 11792.92491 L  -55.611 11954.92488 L  423.95227 11954.92488 L  423.95227 11792.92491  "/>
</clipPath>
 <g clip-path="url(#pgfcp12)">
 <g>
 <g stroke-width="0.4pt">
 <g stroke="rgb(75.0%,75.0%,75.0%)">
 <g fill="rgb(75.0%,75.0%,75.0%)">
 <path d=" M  86.66853 11809.12491 L  281.67273 11809.12491 M  86.66853 11825.3249 L  281.67273 11825.3249 M  86.66853 11841.5249 L  281.67273 11841.5249 M  86.66853 11857.7249 L  281.67273 11857.7249 M  86.66853 11890.1249 L  281.67273 11890.1249 M  86.66853 11906.32489 L  281.67273 11906.32489 M  86.66853 11922.52489 L  281.67273 11922.52489 M  86.66853 11938.72488 L  281.67273 11938.72488  " style="fill:none"/>
 </g>
 </g>
 </g>
 </g>
 </g>
 </g>
 <g>
 <clipPath id="pgfcp13"> <path d=" M  86.66853 11650.7117 L  281.67273 11650.7117 L  281.67273 12097.13809 L  86.66853 12097.13809  "/>
</clipPath>
 <g clip-path="url(#pgfcp13)">
 <g>
 <g stroke-width="0.2pt">
 <g stroke="rgb(50.0%,50.0%,50.0%)">
 <g fill="rgb(50.0%,50.0%,50.0%)">
 <path d=" M  104.0039 11871.79187 L  104.0039 11876.05792 M  156.00586 11871.79187 L  156.00586 11876.05792 M  208.00781 11871.79187 L  208.00781 11876.05792  " style="fill:none"/>
 </g>
 </g>
 </g>
 </g>
 </g>
 </g>
 <g>
 <clipPath id="pgfcp14"> <path d=" M  -55.611 11792.92491 L  -55.611 11954.92488 L  423.95227 11954.92488 L  423.95227 11792.92491  "/>
</clipPath>
 <g clip-path="url(#pgfcp14)">
 <g>
 <g stroke-width="0.2pt">
 <g stroke="rgb(50.0%,50.0%,50.0%)">
 <g fill="rgb(50.0%,50.0%,50.0%)">
 <path d=" M  257.87566 11809.12491 L  262.14386 11809.12491 M  257.87566 11825.3249 L  262.14386 11825.3249 M  257.87566 11841.5249 L  262.14386 11841.5249 M  257.87566 11857.7249 L  262.14386 11857.7249 M  257.87566 11890.1249 L  262.14386 11890.1249 M  257.87566 11906.32489 L  262.14386 11906.32489 M  257.87566 11922.52489 L  262.14386 11922.52489 M  257.87566 11938.72488 L  262.14386 11938.72488  " style="fill:none"/>
 </g>
 </g>
 </g>
 </g>
 </g>
 </g>
 <path d=" M  86.66853 11873.9249 L  279.67276 11873.9249  " style="fill:none"/>
 <g>
 <g transform="matrix(1.0,0.0,0.0,1.0,279.67276,11873.9249)">
 <g>
 <path d=" M  1.99997 0.0 L  -1.19998 1.59998 L  0.0 0.0 L  -1.19998 -1.59998  " style="stroke:none"/>
 </g>
  </g>
 </g>
 <path d=" M  260.00977 11792.92491 L  260.00977 11952.92491  " style="fill:none"/>
 <g>
 <g transform="matrix(0.0,1.0,-1.0,0.0,260.00977,11952.92491)">
 <g>
 <path d=" M  1.99997 0.0 L  -1.19998 1.59998 L  0.0 0.0 L  -1.19998 -1.59998  " style="stroke:none"/>
 </g>
  </g>
 </g>
 <g>
 <g>
 <g transform="matrix(1.0,0.0,0.0,1.0,95.39284,11861.81445)">
 <g fill="rgb(0.0%,0.0%,0.0%)">
 <text style="stroke:none" transform="scale(1,-1) translate(8.61107,0)" text-anchor="middle"  font-size="10"> 
 − 3</text> 
</g>
 </g>
 </g>
 </g>
 <g>
 <g>
 <g transform="matrix(1.0,0.0,0.0,1.0,147.39479,11861.81445)">
 <g fill="rgb(0.0%,0.0%,0.0%)">
 <text style="stroke:none" transform="scale(1,-1) translate(8.61107,0)" text-anchor="middle"  font-size="10"> 
 − 2</text> 
</g>
 </g>
 </g>
 </g>
 <g>
 <g>
 <g transform="matrix(1.0,0.0,0.0,1.0,199.39674,11861.81445)">
 <g fill="rgb(0.0%,0.0%,0.0%)">
 <text style="stroke:none" transform="scale(1,-1) translate(8.61107,0)" text-anchor="middle"  font-size="10"> 
 − 1</text> 
</g>
 </g>
 </g>
 </g>
 <g>
 <g>
 <g transform="matrix(1.0,0.0,0.0,1.0,237.12054,11806.31935)">
 <g fill="rgb(0.0%,0.0%,0.0%)">
 <text style="stroke:none" transform="scale(1,-1) translate(8.61107,0)" text-anchor="middle"  font-size="10"> 
 − 4</text> 
</g>
 </g>
 </g>
 </g>
 <g>
 <g>
 <g transform="matrix(1.0,0.0,0.0,1.0,237.12054,11822.51935)">
 <g fill="rgb(0.0%,0.0%,0.0%)">
 <text style="stroke:none" transform="scale(1,-1) translate(8.61107,0)" text-anchor="middle"  font-size="10"> 
 − 3</text> 
</g>
 </g>
 </g>
 </g>
 <g>
 <g>
 <g transform="matrix(1.0,0.0,0.0,1.0,237.12054,11838.71935)">
 <g fill="rgb(0.0%,0.0%,0.0%)">
 <text style="stroke:none" transform="scale(1,-1) translate(8.61107,0)" text-anchor="middle"  font-size="10"> 
 − 2</text> 
</g>
 </g>
 </g>
 </g>
 <g>
 <g>
 <g transform="matrix(1.0,0.0,0.0,1.0,237.12054,11854.91934)">
 <g fill="rgb(0.0%,0.0%,0.0%)">
 <text style="stroke:none" transform="scale(1,-1) translate(8.61107,0)" text-anchor="middle"  font-size="10"> 
 − 1</text> 
</g>
 </g>
 </g>
 </g>
 <g>
 <g>
 <g transform="matrix(1.0,0.0,0.0,1.0,249.34268,11886.90268)">
 <g fill="rgb(0.0%,0.0%,0.0%)">
 <text style="stroke:none" transform="scale(1,-1) translate(2.5,0)" text-anchor="middle"  font-size="10"> 
1</text> 
</g>
 </g>
 </g>
 </g>
 <g>
 <g>
 <g transform="matrix(1.0,0.0,0.0,1.0,249.34268,11903.10268)">
 <g fill="rgb(0.0%,0.0%,0.0%)">
 <text style="stroke:none" transform="scale(1,-1) translate(2.5,0)" text-anchor="middle"  font-size="10"> 
2</text> 
</g>
 </g>
 </g>
 </g>
 <g>
 <g>
 <g transform="matrix(1.0,0.0,0.0,1.0,249.34268,11919.30267)">
 <g fill="rgb(0.0%,0.0%,0.0%)">
 <text style="stroke:none" transform="scale(1,-1) translate(2.5,0)" text-anchor="middle"  font-size="10"> 
3</text> 
</g>
 </g>
 </g>
 </g>
 <g>
 <g>
 <g transform="matrix(1.0,0.0,0.0,1.0,249.34268,11935.50267)">
 <g fill="rgb(0.0%,0.0%,0.0%)">
 <text style="stroke:none" transform="scale(1,-1) translate(2.5,0)" text-anchor="middle"  font-size="10"> 
4</text> 
</g>
 </g>
 </g>
 </g>
 <clipPath id="pgfcp15"> <path d=" M  86.66853 11792.92491 L  281.67273 11792.92491 L  281.67273 11954.92488 L  86.66853 11954.92488 Z  "/>
</clipPath>
 <g clip-path="url(#pgfcp15)">
 <g>
 <g stroke-width="1.2pt">
 <path d=" M  0.0 14116.85027 C  0.0 14116.85027 15.65459 13168.52994 21.66713 12911.6361 C  27.67967 12654.74225 37.32172 12395.28503 43.33426 12265.33864 C  49.3468 12135.39224 58.98885 12027.42824 65.00139 11975.07303 C  71.01393 11922.71782 80.65599 11899.08177 86.66853 11887.9988 C  92.68108 11876.91582 102.32312 11889.98811 108.33566 11895.19456 C  114.3482 11900.40102 123.99025 11919.37589 130.00279 11925.52333 C  136.01534 11931.67078 145.6574 11939.82819 151.66994 11939.50107 C  157.68248 11939.17395 167.32452 11931.15154 173.33707 11923.16562 C  179.34961 11915.1797 188.99165 11894.24316 195.0042 11881.94406 C  201.01674 11869.64496 210.65878 11844.96068 216.67133 11834.52219 C  222.68387 11824.0837 232.32593 11807.98802 238.33847 11806.71059 C  244.35101 11805.43315 253.99306 11810.70592 260.0056 11825.31526 C  266.01814 11839.9246 275.66019 11877.05923 281.67273 11912.00462 C  287.68527 11946.95001 297.32733 12021.42467 303.33987 12077.1773 C  309.35242 12132.92995 318.99446 12242.4789 325.007 12313.83086 C  331.01955 12385.18282 340.66159 12517.07042 346.67413 12591.43254 C  352.68668 12665.79466 362.32872 12794.08072 368.34126 12849.78116 C  374.3538 12905.4816 383.99586 12988.29965 390.0084 12992.88254 C  396.02095 12997.46542 405.663 12974.28757 411.67554 12882.8115 C  417.68808 12791.33542 427.33012 12580.25014 433.34267 12333.58672 C  439.35521 12086.9233 448.99727 11581.90234 455.00981 11105.03363 C  461.02235 10628.16492 470.6644 9696.33234 476.67694 8896.64967 C  482.68948 8096.96701 492.33153 6575.87267 498.34407 5341.47882 C  504.35661 4107.08498 520.01122 0.0 520.01122 0.0  " style="fill:none"/>
 </g>
 </g>
 </g>
 </g>
 <g>
 <g>
 <g transform="matrix(1.0,0.0,0.0,1.0,285.264,11874.30869)">
 <g fill="rgb(0.0%,0.0%,0.0%)">
 <text style="stroke:none" transform="scale(1,-1) translate(3.71413,0)" text-anchor="middle"  font-size="10"> 
w</text> 
</g>
 </g>
 </g>
 </g>
 <g>
 <g>
 <g transform="matrix(1.0,0.0,0.0,1.0,257.91776,11960.28203)">
 <g fill="rgb(0.0%,0.0%,0.0%)">
 <text style="stroke:none" transform="scale(1,-1) translate(2.14583,0)" text-anchor="middle"  font-size="10"> 
b</text> 
</g>
 </g>
 </g>
 </g>
 </g>
 </g>
 </g>
 </g>
 </g>
                                                                        </g> 
</svg> 
