<?xml version="1.0" encoding="iso-8859-1" standalone="no"?> 
<?xml-stylesheet href="firstExample.css" type="text/css"?> 
<svg xmlns="http://www.w3.org/2000/svg" xmlns:xlink="http://www.w3.org/1999/xlink" width="207.65941pt" height="176.44797pt" viewBox="194.79784 3319.6126 207.65941 176.44797 "> 
<g transform="translate(0, 3496.06056 ) scale(1,-1) translate(0,-3319.6126 )"> 

<g>
 <g stroke="rgb(0.0%,0.0%,0.0%)">
 <g fill="rgb(0.0%,0.0%,0.0%)">
 <g stroke-width="0.4pt">
 <g>
 <g>
 <g>
 <clipPath id="pgfcp1"> <path d=" M  194.99783 3177.59938 L  389.99568 3177.59938 L  389.99568 3624.02577 L  194.99783 3624.02577  "/>
</clipPath>
 <g clip-path="url(#pgfcp1)">
 <g>
 <g stroke-width="0.4pt">
 <g stroke="rgb(75.0%,75.0%,75.0%)">
 <g fill="rgb(75.0%,75.0%,75.0%)">
 <path d=" M  280.80139 3319.81259 L  280.80139 3481.81256 M  327.60162 3319.81259 L  327.60162 3481.81256 M  374.40186 3319.81259 L  374.40186 3481.81256  " style="fill:none"/>
 </g>
 </g>
 </g>
 </g>
 </g>
 </g>
 <g>
 <clipPath id="pgfcp2"> <path d=" M  52.73558 3319.81259 L  52.73558 3481.81256 L  532.25795 3481.81256 L  532.25795 3319.81259  "/>
</clipPath>
 <g clip-path="url(#pgfcp2)">
 <g>
 <g stroke-width="0.4pt">
 <g stroke="rgb(75.0%,75.0%,75.0%)">
 <g fill="rgb(75.0%,75.0%,75.0%)">
 <path d=" M  194.99783 3336.01259 L  389.99568 3336.01259 M  194.99783 3352.21259 L  389.99568 3352.21259 M  194.99783 3368.41258 L  389.99568 3368.41258 M  194.99783 3384.61258 L  389.99568 3384.61258 M  194.99783 3417.01257 L  389.99568 3417.01257 M  194.99783 3433.21257 L  389.99568 3433.21257 M  194.99783 3449.41257 L  389.99568 3449.41257 M  194.99783 3465.61256 L  389.99568 3465.61256  " style="fill:none"/>
 </g>
 </g>
 </g>
 </g>
 </g>
 </g>
 <g>
 <clipPath id="pgfcp3"> <path d=" M  194.99783 3177.59938 L  389.99568 3177.59938 L  389.99568 3624.02577 L  194.99783 3624.02577  "/>
</clipPath>
 <g clip-path="url(#pgfcp3)">
 <g>
 <g stroke-width="0.2pt">
 <g stroke="rgb(50.0%,50.0%,50.0%)">
 <g fill="rgb(50.0%,50.0%,50.0%)">
 <path d=" M  280.80139 3398.67957 L  280.80139 3402.9456 M  327.60162 3398.67957 L  327.60162 3402.9456 M  374.40186 3398.67957 L  374.40186 3402.9456  " style="fill:none"/>
 </g>
 </g>
 </g>
 </g>
 </g>
 </g>
 <g>
 <clipPath id="pgfcp4"> <path d=" M  52.73558 3319.81259 L  52.73558 3481.81256 L  532.25795 3481.81256 L  532.25795 3319.81259  "/>
</clipPath>
 <g clip-path="url(#pgfcp4)">
 <g>
 <g stroke-width="0.2pt">
 <g stroke="rgb(50.0%,50.0%,50.0%)">
 <g fill="rgb(50.0%,50.0%,50.0%)">
 <path d=" M  231.86731 3336.01259 L  236.135 3336.01259 M  231.86731 3352.21259 L  236.135 3352.21259 M  231.86731 3368.41258 L  236.135 3368.41258 M  231.86731 3384.61258 L  236.135 3384.61258 M  231.86731 3417.01257 L  236.135 3417.01257 M  231.86731 3433.21257 L  236.135 3433.21257 M  231.86731 3449.41257 L  236.135 3449.41257 M  231.86731 3465.61256 L  236.135 3465.61256  " style="fill:none"/>
 </g>
 </g>
 </g>
 </g>
 </g>
 </g>
 <path d=" M  194.99783 3400.81258 L  387.99571 3400.81258  " style="fill:none"/>
 <g>
 <g transform="matrix(1.0,0.0,0.0,1.0,387.99571,3400.81258)">
 <g>
 <path d=" M  1.99997 0.0 L  -1.19998 1.59998 L  0.0 0.0 L  -1.19998 -1.59998  " style="stroke:none"/>
 </g>
  </g>
 </g>
 <path d=" M  234.00116 3319.81259 L  234.00116 3479.81259  " style="fill:none"/>
 <g>
 <g transform="matrix(0.0,1.0,-1.0,0.0,234.00116,3479.81259)">
 <g>
 <path d=" M  1.99997 0.0 L  -1.19998 1.59998 L  0.0 0.0 L  -1.19998 -1.59998  " style="stroke:none"/>
 </g>
  </g>
 </g>
 <g>
 <g>
 <g transform="matrix(1.0,0.0,0.0,1.0,278.30139,3388.70216)">
 <g fill="rgb(0.0%,0.0%,0.0%)">
 <text style="stroke:none" transform="scale(1,-1) translate(2.5,0)" text-anchor="middle"  font-size="10"> 
1</text> 
</g>
 </g>
 </g>
 </g>
 <g>
 <g>
 <g transform="matrix(1.0,0.0,0.0,1.0,325.10162,3388.70216)">
 <g fill="rgb(0.0%,0.0%,0.0%)">
 <text style="stroke:none" transform="scale(1,-1) translate(2.5,0)" text-anchor="middle"  font-size="10"> 
2</text> 
</g>
 </g>
 </g>
 </g>
 <g>
 <g>
 <g transform="matrix(1.0,0.0,0.0,1.0,371.90186,3388.70216)">
 <g fill="rgb(0.0%,0.0%,0.0%)">
 <text style="stroke:none" transform="scale(1,-1) translate(2.5,0)" text-anchor="middle"  font-size="10"> 
3</text> 
</g>
 </g>
 </g>
 </g>
 <g>
 <g>
 <g transform="matrix(1.0,0.0,0.0,1.0,211.1122,3333.20703)">
 <g fill="rgb(0.0%,0.0%,0.0%)">
 <text style="stroke:none" transform="scale(1,-1) translate(8.61107,0)" text-anchor="middle"  font-size="10"> 
 − 4</text> 
</g>
 </g>
 </g>
 </g>
 <g>
 <g>
 <g transform="matrix(1.0,0.0,0.0,1.0,211.1122,3349.40703)">
 <g fill="rgb(0.0%,0.0%,0.0%)">
 <text style="stroke:none" transform="scale(1,-1) translate(8.61107,0)" text-anchor="middle"  font-size="10"> 
 − 3</text> 
</g>
 </g>
 </g>
 </g>
 <g>
 <g>
 <g transform="matrix(1.0,0.0,0.0,1.0,211.1122,3365.60703)">
 <g fill="rgb(0.0%,0.0%,0.0%)">
 <text style="stroke:none" transform="scale(1,-1) translate(8.61107,0)" text-anchor="middle"  font-size="10"> 
 − 2</text> 
</g>
 </g>
 </g>
 </g>
 <g>
 <g>
 <g transform="matrix(1.0,0.0,0.0,1.0,211.1122,3381.80702)">
 <g fill="rgb(0.0%,0.0%,0.0%)">
 <text style="stroke:none" transform="scale(1,-1) translate(8.61107,0)" text-anchor="middle"  font-size="10"> 
 − 1</text> 
</g>
 </g>
 </g>
 </g>
 <g>
 <g>
 <g transform="matrix(1.0,0.0,0.0,1.0,223.33434,3413.79036)">
 <g fill="rgb(0.0%,0.0%,0.0%)">
 <text style="stroke:none" transform="scale(1,-1) translate(2.5,0)" text-anchor="middle"  font-size="10"> 
1</text> 
</g>
 </g>
 </g>
 </g>
 <g>
 <g>
 <g transform="matrix(1.0,0.0,0.0,1.0,223.33434,3429.99036)">
 <g fill="rgb(0.0%,0.0%,0.0%)">
 <text style="stroke:none" transform="scale(1,-1) translate(2.5,0)" text-anchor="middle"  font-size="10"> 
2</text> 
</g>
 </g>
 </g>
 </g>
 <g>
 <g>
 <g transform="matrix(1.0,0.0,0.0,1.0,223.33434,3446.19035)">
 <g fill="rgb(0.0%,0.0%,0.0%)">
 <text style="stroke:none" transform="scale(1,-1) translate(2.5,0)" text-anchor="middle"  font-size="10"> 
3</text> 
</g>
 </g>
 </g>
 </g>
 <g>
 <g>
 <g transform="matrix(1.0,0.0,0.0,1.0,223.33434,3462.39035)">
 <g fill="rgb(0.0%,0.0%,0.0%)">
 <text style="stroke:none" transform="scale(1,-1) translate(2.5,0)" text-anchor="middle"  font-size="10"> 
4</text> 
</g>
 </g>
 </g>
 </g>
 <clipPath id="pgfcp5"> <path d=" M  194.99783 3319.81259 L  389.99568 3319.81259 L  389.99568 3481.81256 L  194.99783 3481.81256 Z  "/>
</clipPath>
 <g clip-path="url(#pgfcp5)">
 <g>
 <g stroke-width="1.2pt">
 <path d=" M  0.0 0.0 C  0.0 0.0 14.08867 1136.16609 19.49977 1483.31369 C  24.91087 1830.46129 33.58844 2269.49635 38.99956 2501.99776 C  44.41068 2734.49916 53.08823 3014.61374 58.49934 3159.02164 C  63.91046 3303.42953 72.58801 3463.82906 77.99913 3542.78923 C  83.41025 3621.7494 92.0878 3695.58899 97.49892 3728.11154 C  102.91003 3760.6341 111.58759 3775.457 116.9987 3777.18912 C  122.40982 3778.92123 131.08737 3757.09732 136.49849 3740.5955 C  141.9096 3724.09369 150.58716 3683.25351 155.99828 3658.2555 C  161.4094 3633.25748 170.08696 3586.72963 175.49806 3560.42714 C  180.90916 3534.12465 189.58673 3491.37453 194.99783 3468.68541 C  200.40894 3445.99629 209.0865 3413.05937 214.49762 3396.89978 C  219.90874 3380.74019 228.58629 3360.66142 233.9974 3352.21828 C  239.40852 3343.77513 248.08607 3337.04434 253.4972 3336.04745 C  258.90831 3335.05057 267.58586 3340.03893 272.99698 3345.03339 C  278.4081 3350.02785 287.08565 3363.42558 292.49677 3372.04408 C  297.90788 3380.66258 306.58543 3397.91457 311.99655 3407.1496 C  317.40767 3416.38463 326.08522 3432.12762 331.49634 3438.60384 C  336.90746 3445.08005 345.585 3453.57924 350.99612 3453.8257 C  356.40724 3454.07216 365.08481 3449.65773 370.49591 3440.38016 C  375.90701 3431.10258 384.58458 3408.60628 389.99568 3386.95943 C  395.40678 3365.31258 404.08435 3320.50476 409.49547 3284.36472 C  414.90659 3248.22467 423.58414 3178.25076 428.99525 3126.48718 C  434.40637 3074.7236 443.08392 2978.54054 448.49504 2911.28894 C  453.90616 2844.03734 467.99483 2641.78453 467.99483 2641.78453  " style="fill:none"/>
 </g>
 </g>
 </g>
 </g>
 <g>
 <g>
 <g transform="matrix(1.0,0.0,0.0,1.0,393.60342,3397.98065)">
 <g fill="rgb(0.0%,0.0%,0.0%)">
 <text style="stroke:none" transform="scale(1,-1) translate(2.76042,0)" text-anchor="middle"  font-size="10"> 
k</text> 
</g>
 </g>
 </g>
 </g>
 <g>
 <g>
 <g transform="matrix(1.0,0.0,0.0,1.0,230.1451,3485.89427)">
 <g fill="rgb(0.0%,0.0%,0.0%)">
 <text style="stroke:none" transform="scale(1,-1) translate(3.90451,0)" text-anchor="middle"  font-size="10"> 
P</text> 
</g>
 </g>
 </g>
 </g>
 </g>
 </g>
 </g>
 </g>
 </g>
                                                                                                   </g> 
</svg> 
